<svg width="191" height="56" viewBox="0 0 191 56" fill="none" xmlns="http://www.w3.org/2000/svg">
<g filter="url(#filter0_d_281_1675)">
<path fill-rule="evenodd" clip-rule="evenodd" d="M35.3411 25.9998C38.0393 23.6184 39.741 20.1341 39.741 16.2524C39.741 15.2485 39.6272 14.2712 39.4118 13.3326C45.1839 14.6574 49.4891 19.8259 49.4891 26C49.4891 32.1742 45.1839 37.3428 39.4117 38.6675C39.6272 37.7288 39.741 36.7513 39.741 35.7472C39.741 31.8655 38.0393 28.3812 35.3411 25.9998ZM29.6637 28.9198C31.8068 28.4279 33.7477 27.4062 35.3411 25.9998C33.7477 24.5934 31.8067 23.5716 29.6635 23.0798C29.1717 20.9375 28.1503 18.9972 26.7446 17.4043C29.126 14.7056 32.6106 13.0035 36.4927 13.0035C37.4963 13.0035 38.4734 13.1173 39.4118 13.3326C38.0868 7.56077 32.9184 3.25586 26.7446 3.25586C20.5707 3.25586 15.4023 7.56077 14.0774 13.3326C8.30522 14.6574 4 19.8259 4 26C4 32.1742 8.30528 37.3428 14.0775 38.6675C15.4026 44.4391 20.5709 48.7437 26.7446 48.7437C32.9182 48.7437 38.0865 44.4391 39.4117 38.6675C38.4734 38.8828 37.4963 38.9966 36.4927 38.9966C32.6106 38.9966 29.126 37.2945 26.7446 34.5958C28.1504 33.0027 29.1718 31.0623 29.6637 28.9198ZM23.8255 28.9198C24.3173 31.0623 25.3387 33.0027 26.7446 34.5958C24.3631 37.2945 20.8786 38.9966 16.9965 38.9966C15.9928 38.9966 15.0158 38.8828 14.0775 38.6675C13.862 37.7288 13.7481 36.7513 13.7481 35.7472C13.7481 31.8655 15.4499 28.3812 18.148 25.9998C19.7414 27.4062 21.6823 28.4279 23.8255 28.9198ZM23.8256 23.0798C24.3175 20.9375 25.3388 18.9972 26.7446 17.4043C24.3631 14.7056 20.8786 13.0035 16.9965 13.0035C15.9928 13.0035 15.0157 13.1173 14.0774 13.3326C13.8619 14.2712 13.7481 15.2485 13.7481 16.2524C13.7481 20.1341 15.4499 23.6184 18.148 25.9998C19.7414 24.5934 21.6824 23.5716 23.8256 23.0798ZM23.8256 23.0798C23.6101 24.0185 23.4962 24.996 23.4962 26C23.4962 27.0039 23.61 27.9813 23.8255 28.9198C24.7638 29.1351 25.7409 29.2489 26.7446 29.2489C27.7482 29.2489 28.7253 29.1351 29.6637 28.9198C29.8791 27.9813 29.9929 27.0039 29.9929 26C29.9929 24.996 29.8791 24.0185 29.6635 23.0798C28.7253 22.8645 27.7482 22.7507 26.7446 22.7507C25.7409 22.7507 24.7639 22.8645 23.8256 23.0798Z" fill="#161616"/>
</g>
<line x1="56.3944" y1="2.44385" x2="56.3944" y2="49.5563" stroke="#161616" stroke-width="0.812281"/>
<path d="M70.2257 21.2339C65.8979 21.2339 63.1881 18.3682 63.1881 13.8064C63.1881 9.30315 66.0539 6.33995 70.3622 6.33995C73.9687 6.33995 76.5615 8.40639 77.0099 11.6425H73.6763C73.2474 10.1999 72.0193 9.38113 70.2842 9.38113C67.9449 9.38113 66.5217 11.0382 66.5217 13.7869C66.5217 16.4967 67.9644 18.1928 70.2842 18.1928C72.0582 18.1928 73.3644 17.3155 73.7543 15.8924H77.0294C76.5225 19.109 73.8323 21.2339 70.2257 21.2339ZM80.2527 9.73204C79.2975 9.73204 78.5372 8.97174 78.5372 8.0165C78.5372 7.06126 79.2975 6.32045 80.2527 6.32045C81.1885 6.32045 81.9488 7.06126 81.9488 8.0165C81.9488 8.97174 81.1885 9.73204 80.2527 9.73204ZM78.7711 21V11.2526H81.7733V21H78.7711ZM90.7318 11.2526V14.0794H89.7765C88.061 14.0794 87.0278 14.8397 87.0278 16.7696V21H84.0256V11.2721H86.8523L87.0083 12.7147C87.4177 11.7595 88.2754 11.1162 89.5816 11.1162C89.9325 11.1162 90.3224 11.1552 90.7318 11.2526ZM91.438 16.0873C91.438 13.0851 93.5045 10.9407 96.4287 10.9407C99.3139 10.9407 101.224 12.5198 101.419 15.0736H98.3976C98.1832 14.0989 97.5789 13.631 96.5456 13.631C95.2785 13.631 94.4597 14.5862 94.4597 16.0873C94.4597 17.6469 95.22 18.5632 96.5066 18.5632C97.5594 18.5632 98.2027 18.0758 98.3976 17.1205H101.419C101.224 19.5769 99.2359 21.2534 96.5066 21.2534C93.4265 21.2534 91.438 19.2065 91.438 16.0873ZM106.066 21H103.063V6.30096H106.066V21ZM112.841 21.2534C109.897 21.2534 107.792 19.109 107.792 16.1068C107.792 13.0656 109.838 10.9407 112.782 10.9407C115.843 10.9407 117.753 12.9487 117.753 16.1263V16.8866L110.677 16.9256C110.852 18.2123 111.573 18.8166 112.899 18.8166C114.03 18.8166 114.829 18.4072 115.044 17.7054H117.792C117.441 19.8693 115.511 21.2534 112.841 21.2534ZM112.802 13.3776C111.612 13.3776 110.95 13.9039 110.716 15.0736H114.771C114.771 14.0404 114.01 13.3776 112.802 13.3776ZM130.714 21H125.061V6.57389H130.519C134.75 6.57389 137.693 9.53709 137.693 13.8259C137.693 18.0368 134.828 21 130.714 21ZM130.207 9.4981H128.219V18.0758H130.402C132.898 18.0758 134.36 16.4967 134.36 13.8259C134.36 11.0967 132.82 9.4981 130.207 9.4981ZM141.002 9.73204C140.047 9.73204 139.287 8.97174 139.287 8.0165C139.287 7.06126 140.047 6.32045 141.002 6.32045C141.938 6.32045 142.699 7.06126 142.699 8.0165C142.699 8.97174 141.938 9.73204 141.002 9.73204ZM139.521 21V11.2526H142.523V21H139.521ZM144.288 15.9509C144.288 12.9877 146.218 10.9212 148.967 10.9212C150.292 10.9212 151.345 11.4281 151.871 12.2274L152.027 11.2526H154.854V20.3762C154.854 23.8657 152.846 25.9712 149.513 25.9712C146.53 25.9712 144.522 24.2751 144.249 21.5069H147.29C147.349 22.5986 148.167 23.2419 149.493 23.2419C150.936 23.2419 151.852 22.3841 151.852 21V19.7328C151.267 20.4347 150.175 20.883 148.908 20.883C146.179 20.883 144.288 18.8751 144.288 15.9509ZM147.31 15.8729C147.31 17.2765 148.245 18.2707 149.571 18.2707C150.936 18.2707 151.852 17.3155 151.852 15.8729C151.852 14.4498 150.936 13.5335 149.552 13.5335C148.226 13.5335 147.31 14.4888 147.31 15.8729ZM158.593 9.73204C157.638 9.73204 156.878 8.97174 156.878 8.0165C156.878 7.06126 157.638 6.32045 158.593 6.32045C159.529 6.32045 160.289 7.06126 160.289 8.0165C160.289 8.97174 159.529 9.73204 158.593 9.73204ZM157.112 21V11.2526H160.114V21H157.112ZM166.304 21H163.302V13.748H161.45V11.2526H163.302V8.23094H166.304V11.2526H168.156V13.748H166.304V21ZM172.449 21.2534C170.383 21.2534 169.096 20.0448 169.096 18.1343C169.096 16.3408 170.363 15.2296 172.703 15.0541L175.432 14.8397V14.6837C175.432 13.7285 174.847 13.2216 173.775 13.2216C172.508 13.2216 171.825 13.709 171.825 14.5862H169.33C169.33 12.3833 171.143 10.9407 173.931 10.9407C176.758 10.9407 178.356 12.5198 178.356 15.3075V21H175.705L175.51 19.7133C175.198 20.6101 173.911 21.2534 172.449 21.2534ZM173.502 19.031C174.652 19.031 175.451 18.4657 175.451 17.3545V16.8281L173.931 16.9646C172.625 17.0816 172.157 17.374 172.157 17.9978C172.157 18.6996 172.586 19.031 173.502 19.031ZM183.512 21H180.509V6.30096H183.512V21ZM63.1881 36.7653C63.1881 34.153 65.391 32.301 68.4907 32.301C71.5904 32.301 73.5399 34.0165 73.5399 36.7458H70.4012C70.4012 35.732 69.6409 35.1082 68.4517 35.1082C67.1651 35.1082 66.3463 35.693 66.3463 36.6483C66.3463 37.5256 66.7947 37.9544 67.8084 38.1689L69.9723 38.6173C72.5456 39.1436 73.7738 40.3718 73.7738 42.6527C73.7738 45.4404 71.5904 47.2534 68.2763 47.2534C65.0596 47.2534 62.9737 45.5184 62.9737 42.8086H66.1124C66.1124 43.8613 66.8921 44.4462 68.2958 44.4462C69.7189 44.4462 70.6156 43.8808 70.6156 42.9646C70.6156 42.1653 70.2452 41.7559 69.29 41.561L67.0871 41.1126C64.5138 40.5862 63.1881 39.1241 63.1881 36.7653ZM74.9703 42.1068C74.9703 39.0266 77.2317 36.9602 80.3508 36.9602C83.4505 36.9602 85.7119 39.0266 85.7119 42.1068C85.7119 45.187 83.4505 47.2339 80.3508 47.2339C77.2317 47.2339 74.9703 45.187 74.9703 42.1068ZM77.992 42.0873C77.992 43.5689 78.9472 44.5437 80.3508 44.5437C81.735 44.5437 82.6902 43.5689 82.6902 42.0873C82.6902 40.6252 81.735 39.6505 80.3508 39.6505C78.9472 39.6505 77.992 40.6252 77.992 42.0873ZM90.4546 47H87.4524V32.301H90.4546V47ZM99.1791 37.2526H102.181V47H99.3546L99.1596 45.9083C98.5553 46.7076 97.3466 47.2534 96.1769 47.2534C93.9545 47.2534 92.5899 45.7718 92.5899 43.374V37.2526H95.5921V42.2823C95.5921 43.8808 96.1379 44.5827 97.3661 44.5827C98.6527 44.5827 99.1791 43.9198 99.1791 42.3213V37.2526ZM108.372 47H105.37V39.748H103.518V37.2526H105.37V34.2309H108.372V37.2526H110.224V39.748H108.372V47ZM113.055 35.732C112.1 35.732 111.339 34.9717 111.339 34.0165C111.339 33.0613 112.1 32.3205 113.055 32.3205C113.991 32.3205 114.751 33.0613 114.751 34.0165C114.751 34.9717 113.991 35.732 113.055 35.732ZM111.573 47V37.2526H114.576V47H111.573ZM116.301 42.1068C116.301 39.0266 118.563 36.9602 121.682 36.9602C124.782 36.9602 127.043 39.0266 127.043 42.1068C127.043 45.187 124.782 47.2339 121.682 47.2339C118.563 47.2339 116.301 45.187 116.301 42.1068ZM119.323 42.0873C119.323 43.5689 120.278 44.5437 121.682 44.5437C123.066 44.5437 124.021 43.5689 124.021 42.0873C124.021 40.6252 123.066 39.6505 121.682 39.6505C120.278 39.6505 119.323 40.6252 119.323 42.0873ZM131.786 47H128.784V37.2526H131.61L131.805 38.2664C132.41 37.4281 133.521 36.9407 134.788 36.9407C137.108 36.9407 138.453 38.4223 138.453 40.9761V47H135.451V41.6974C135.451 40.4693 134.768 39.67 133.735 39.67C132.546 39.67 131.786 40.4498 131.786 41.6584V47ZM139.79 43.9198H142.636C142.675 44.6021 143.182 45.0115 144.098 45.0115C145.034 45.0115 145.463 44.6801 145.463 44.1733C145.463 43.8808 145.307 43.5689 144.586 43.413L142.792 43.0231C140.999 42.6332 140.121 41.8534 140.121 40.1378C140.121 38.1104 141.856 36.9407 144.196 36.9407C146.457 36.9407 148.036 38.2664 148.036 40.2353H145.19C145.19 39.5725 144.781 39.1241 144.059 39.1241C143.377 39.1241 142.948 39.475 142.948 40.0014C142.948 40.4498 143.319 40.7032 144.001 40.8592L145.814 41.249C147.412 41.6 148.29 42.3408 148.29 43.9003C148.29 45.9863 146.516 47.2534 143.981 47.2534C141.408 47.2534 139.79 45.8888 139.79 43.9198Z" fill="#161616"/>
<ellipse cx="26.745" cy="25.9926" rx="4.0614" ry="4.06141" fill="white"/>
<defs>
<filter id="filter0_d_281_1675" x="0.750876" y="3.25586" width="51.9865" height="51.986" filterUnits="userSpaceOnUse" color-interpolation-filters="sRGB">
<feFlood flood-opacity="0" result="BackgroundImageFix"/>
<feColorMatrix in="SourceAlpha" type="matrix" values="0 0 0 0 0 0 0 0 0 0 0 0 0 0 0 0 0 0 127 0" result="hardAlpha"/>
<feOffset dy="3.24912"/>
<feGaussianBlur stdDeviation="1.62456"/>
<feComposite in2="hardAlpha" operator="out"/>
<feColorMatrix type="matrix" values="0 0 0 0 0 0 0 0 0 0 0 0 0 0 0 0 0 0 0.25 0"/>
<feBlend mode="normal" in2="BackgroundImageFix" result="effect1_dropShadow_281_1675"/>
<feBlend mode="normal" in="SourceGraphic" in2="effect1_dropShadow_281_1675" result="shape"/>
</filter>
</defs>
</svg>
