<svg width="20" height="20" viewBox="0 0 20 20" fill="none" xmlns="http://www.w3.org/2000/svg">
<path d="M19.9478 7.62562C19.8838 7.42739 19.763 7.25236 19.6002 7.12236C19.4375 6.99236 19.2401 6.91313 19.0327 6.89456L13.2602 6.37046L10.9775 1.02776C10.8956 0.836386 10.7593 0.673259 10.5855 0.558611C10.4118 0.443963 10.2082 0.382837 10 0.382812C9.79174 0.382834 9.58805 0.444069 9.41427 0.558906C9.24049 0.673742 9.10429 0.837117 9.02259 1.02872L6.7399 6.37046L0.96656 6.89467C0.759379 6.91365 0.562324 6.99301 0.399826 7.12293C0.237327 7.25284 0.116532 7.4276 0.0524168 7.62552C-0.0122027 7.82348 -0.0171867 8.03608 0.038085 8.23685C0.0933568 8.43762 0.206444 8.61771 0.363277 8.75471L4.72661 12.5814L3.44001 18.2491C3.3936 18.4524 3.40804 18.6649 3.48153 18.86C3.55502 19.0551 3.68431 19.2244 3.85328 19.3465C4.03424 19.4781 4.25215 19.549 4.47586 19.5492C4.66792 19.549 4.85631 19.4966 5.02085 19.3975L10.0001 16.4216L14.9776 19.3975C15.1559 19.5047 15.3617 19.557 15.5695 19.548C15.7773 19.5389 15.9778 19.4688 16.146 19.3465C16.315 19.2243 16.4442 19.0551 16.5177 18.86C16.5913 18.6648 16.6058 18.4524 16.5595 18.2491L15.2728 12.5814L19.6362 8.75557C19.7931 8.61847 19.9063 8.43827 19.9618 8.23736C20.0172 8.03646 20.0124 7.8237 19.9479 7.62552L19.9478 7.62562Z" fill="#FBBF24"/>
</svg>
