<svg width="98" height="24" viewBox="0 0 98 24" fill="none" xmlns="http://www.w3.org/2000/svg">
<g clip-path="url(#clip0_281_434)">
<mask id="mask0_281_434" style="mask-type:luminance" maskUnits="userSpaceOnUse" x="0" y="0" width="17" height="24">
<path d="M16.67 0.0302734H0V23.9703H16.67V0.0302734Z" fill="white"/>
</mask>
<g mask="url(#mask0_281_434)">
<path d="M15.8956 4.5368C15.8956 6.59746 14.225 8.26798 12.1642 8.26798H8.33594V0.805664H12.1642C14.225 0.805664 15.8956 2.47615 15.8956 4.5368Z" stroke="white" stroke-width="1.67595"/>
<path d="M0.775391 4.5368C0.775391 6.59746 2.44598 8.26798 4.50677 8.26798H8.33506V0.805664H4.50677C2.44598 0.805664 0.775391 2.47615 0.775391 4.5368Z" stroke="white" stroke-width="1.67595"/>
<path d="M0.775391 11.9997C0.775391 14.0604 2.44598 15.7308 4.50677 15.7308H8.33506V8.26855H4.50677C2.44598 8.26855 0.775391 9.93902 0.775391 11.9997Z" stroke="white" stroke-width="1.67595"/>
<path d="M0.775391 19.4626C0.775391 21.5232 2.47006 23.1937 4.53084 23.1937C6.61838 23.1937 8.33506 21.5015 8.33506 19.4141V15.7314H4.50677C2.44598 15.7314 0.775391 17.4019 0.775391 19.4626Z" stroke="white" stroke-width="1.67595"/>
<path d="M8.33594 11.9997C8.33594 14.0604 10.0065 15.7308 12.0673 15.7308H12.1642C14.225 15.7308 15.8956 14.0604 15.8956 11.9997C15.8956 9.93902 14.225 8.26855 12.1642 8.26855H12.0673C10.0065 8.26855 8.33594 9.93902 8.33594 11.9997Z" stroke="white" stroke-width="1.67595"/>
</g>
<mask id="mask1_281_434" style="mask-type:luminance" maskUnits="userSpaceOnUse" x="31" y="0" width="67" height="24">
<path d="M97.6713 0.0302734H31.6328V23.9703H97.6713V0.0302734Z" fill="white"/>
</mask>
<g mask="url(#mask1_281_434)">
<path d="M31.6328 0.031429V18.5237L34.0122 18.531V9.72478H39.7489V7.39711H34.0122V2.35797H41.4834V0.0302734L31.6328 0.031429Z" fill="white"/>
<path d="M45.7665 3.78491C46.6235 3.78491 47.3182 3.09022 47.3182 2.23328C47.3182 1.37633 46.6235 0.681641 45.7665 0.681641C44.9096 0.681641 44.2148 1.37633 44.2148 2.23328C44.2148 3.09022 44.9096 3.78491 45.7665 3.78491Z" fill="white"/>
<path d="M44.5566 6.11328V18.5277H46.9359V6.11328H44.5566Z" fill="white"/>
<path fill-rule="evenodd" clip-rule="evenodd" d="M55.759 5.75098C52.5995 5.75098 50.3945 8.42329 50.3945 11.5961C50.3945 14.7689 52.5995 17.4412 55.759 17.4412C57.2055 17.4412 58.3976 16.8811 59.2652 15.9695V17.6222C59.2652 19.6791 57.6497 21.3982 55.5411 21.3982C54.7832 21.3982 54.0302 21.1045 53.4303 20.691L52.2381 22.7559C53.1902 23.3697 54.3241 23.726 55.5411 23.726C58.912 23.726 61.6446 20.9932 61.6446 17.6222V6.11306H59.2652V7.22273C58.3976 6.31101 57.2055 5.75098 55.759 5.75098ZM52.7738 11.5961C52.7738 9.62665 54.2802 8.0787 56.0177 8.0787C57.7552 8.0787 59.2615 9.62665 59.2615 11.5961C59.2615 13.5654 57.7552 15.1135 56.0177 15.1135C54.2802 15.1135 52.7738 13.5654 52.7738 11.5961Z" fill="white"/>
<path d="M70.2178 8.0787C68.8109 8.0787 67.6703 9.27091 67.6703 10.6779V18.5275H65.291V6.11306H67.6703V7.25029C68.3675 6.34904 69.3946 5.75098 70.735 5.75098C72.4021 5.75098 73.6818 6.57909 74.4229 7.84641C75.2468 6.6223 76.5912 5.75098 78.2093 5.75098C80.9174 5.75098 82.6028 7.93588 82.6185 10.6391C82.6185 10.6472 82.6185 10.6554 82.6185 10.6637V10.6645C82.6185 10.6689 82.6185 10.6736 82.6185 10.6779V18.5275H80.2396V10.6779C80.2396 9.27091 79.0988 8.0787 77.6916 8.0787C76.2852 8.0787 75.1444 9.27091 75.1444 10.6779V18.5275H72.7652V10.6779C72.7652 9.27091 71.6247 8.0787 70.2178 8.0787Z" fill="white"/>
<path fill-rule="evenodd" clip-rule="evenodd" d="M95.2922 7.52037C94.2336 6.4273 92.7838 5.75098 91.1021 5.75098C87.5629 5.75098 85.0508 8.74805 85.0508 12.3202C85.0508 15.8924 87.5629 18.8895 91.1021 18.8895C92.7838 18.8895 94.2336 18.2133 95.2922 17.1202V18.5275H97.6711V6.11306H95.2922V7.52037ZM87.4297 12.3202C87.4297 9.95036 89.2446 8.0787 91.3609 8.0787C93.4773 8.0787 95.2922 9.95036 95.2922 12.3202C95.2922 14.6902 93.4773 16.5618 91.3609 16.5618C89.2446 16.5618 87.4297 14.6902 87.4297 12.3202Z" fill="white"/>
</g>
</g>
<defs>
<clipPath id="clip0_281_434">
<rect width="98" height="23.94" fill="white" transform="translate(0 0.0302734)"/>
</clipPath>
</defs>
</svg>
