<svg width="107" height="26" viewBox="0 0 107 26" fill="none" xmlns="http://www.w3.org/2000/svg">
<g clip-path="url(#clip0_281_416)">
<mask id="mask0_281_416" style="mask-type:luminance" maskUnits="userSpaceOnUse" x="0" y="0" width="107" height="26">
<path d="M106.846 0.929688H0.466797V25.0391H106.846V0.929688Z" fill="white"/>
</mask>
<g mask="url(#mask0_281_416)">
<path d="M53.7764 6.95704C49.6535 6.95704 46.6812 9.65729 46.6812 13.7559C46.6812 17.8545 50.037 20.5547 54.1599 20.5547C56.6528 20.5547 58.8581 19.5421 60.2004 17.9027L57.324 16.215C56.5569 17.0348 55.4063 17.517 54.1119 17.517C52.3382 17.517 50.8041 16.5526 50.2288 15.0578H60.7277C60.8236 14.6238 60.8716 14.1899 60.8716 13.7559C60.8716 9.65729 57.8992 6.95704 53.7764 6.95704ZM50.2288 12.4058C50.7082 10.911 51.9546 9.9466 53.7764 9.9466C55.5502 9.9466 56.8446 10.911 57.324 12.4058H50.2288ZM49.3659 2.81022L39.0108 20.8923L28.6077 2.81022H32.4909L38.9629 14.0934L45.4827 2.81022H49.3659ZM14.3215 0.929688L28.1763 25.0391H0.466797L14.3215 0.929688ZM75.9246 13.7559C75.9246 16.0222 77.4113 17.517 79.6643 17.517C81.1985 17.517 82.3491 16.7937 82.9723 15.6846L85.8484 17.3723C84.6496 19.3493 82.4448 20.5547 79.6643 20.5547C75.541 20.5547 72.569 17.8545 72.569 13.7559C72.569 9.65729 75.541 6.95704 79.6643 6.95704C82.3966 6.95704 84.6496 8.16251 85.8484 10.1395L82.9723 11.8271C82.3966 10.6699 81.1985 9.99482 79.6643 9.99482C77.4113 9.99482 75.9246 11.4896 75.9246 13.7559ZM106.846 2.81022V20.1208H103.491V2.81022H106.846ZM94.0942 6.95704C89.971 6.95704 86.9991 9.65729 86.9991 13.7559C86.9991 17.8545 90.3545 20.5547 94.4778 20.5547C96.9704 20.5547 99.176 19.5421 100.518 17.9027L97.6418 16.215C96.8747 17.0348 95.7241 17.517 94.4295 17.517C92.6558 17.517 91.1216 16.5526 90.5466 15.0578H101.045C101.141 14.6238 101.189 14.1899 101.189 13.7559C101.238 9.65729 98.2167 6.95704 94.0942 6.95704ZM90.5466 12.4058C91.0259 10.911 92.2722 9.9466 94.0942 9.9466C95.9162 9.9466 97.1626 10.911 97.6418 12.4058H90.5466ZM71.4664 7.34279V11.0074C71.0828 10.911 70.6993 10.8145 70.2678 10.8145C68.1105 10.8145 66.5285 12.3093 66.5285 14.5756V20.169H63.1727V7.34279H66.5285V10.8145C66.5285 8.88579 68.7337 7.34279 71.4664 7.34279Z" fill="white"/>
</g>
</g>
<defs>
<clipPath id="clip0_281_416">
<rect width="107" height="24.1094" fill="white" transform="translate(0 0.929688)"/>
</clipPath>
</defs>
</svg>
