<svg width="195" height="24" viewBox="0 0 195 24" fill="none" xmlns="http://www.w3.org/2000/svg">
<g clip-path="url(#clip0_281_408)">
<mask id="mask0_281_408" style="mask-type:luminance" maskUnits="userSpaceOnUse" x="0" y="0" width="195" height="24">
<path d="M194.713 0H0.119141V24H194.713V0Z" fill="white"/>
</mask>
<g mask="url(#mask0_281_408)">
<path fill-rule="evenodd" clip-rule="evenodd" d="M20.2103 0C14.8585 0 11.5246 2.66341 10.1793 7.99027C12.1972 5.32683 14.5368 4.33171 17.2273 4.97561C18.748 5.35609 19.8594 6.46829 21.0584 7.6683C23.0178 9.68782 25.2989 12 30.2705 12C35.6223 12 38.9854 9.3366 40.3307 4.00976C38.3128 6.67317 35.9732 7.6683 33.312 6.99512C31.7912 6.61463 30.6799 5.50243 29.4809 4.30244C27.4923 2.3122 25.2111 0 20.2103 0ZM10.1793 12C4.7983 12 1.4644 14.6634 0.119141 19.9903C2.13703 17.3268 4.47661 16.3317 7.16713 16.9756C8.68789 17.3561 9.79916 18.4683 10.9982 19.6683C12.9576 21.6878 15.2387 24 20.2103 24C25.5621 24 28.9252 21.3366 30.2705 16.0097C28.2526 18.6732 25.913 19.6683 23.2225 18.9951C21.7017 18.6146 20.5905 17.5025 19.3914 16.3025C17.4321 14.3122 15.1509 12 10.1793 12Z" fill="white"/>
<path fill-rule="evenodd" clip-rule="evenodd" d="M60.4211 10.0973H56.9117V16.8582C56.9117 18.6729 58.1108 18.6436 60.4211 18.5265V21.2485C55.7127 21.8046 53.8411 20.5168 53.8411 16.8582V10.0973H51.2383V7.17044H53.8411V3.39483L56.9117 2.48751V7.17044H60.4211V10.0973ZM73.8152 7.19971H76.8567V21.2777H73.8152V19.2582C72.7332 20.7509 71.0663 21.6582 68.8729 21.6582C65.0126 21.6582 61.8249 18.4094 61.8249 14.2534C61.8249 10.068 65.0126 6.84849 68.8729 6.84849C71.0663 6.84849 72.7624 7.75584 73.8152 9.21923V7.19971ZM69.3408 18.7314C71.8851 18.7314 73.8152 16.829 73.8152 14.2241C73.8152 11.59 71.8851 9.71679 69.3408 9.71679C66.7965 9.71679 64.8663 11.6192 64.8663 14.2241C64.8663 16.829 66.7965 18.7314 69.3408 18.7314ZM81.9455 5.06313C80.8632 5.06313 79.9857 4.15581 79.9857 3.13142C79.9857 2.04849 80.8632 1.19971 81.9455 1.19971C83.027 1.19971 83.9045 2.07776 83.9045 3.13142C83.9045 4.18508 83.027 5.06313 81.9455 5.06313ZM80.4245 21.2485V7.19971H83.4657V21.2777H80.4245V21.2485ZM87.005 21.2485V0.702148H90.0462V21.2485H87.005ZM109.903 7.19971H113.12L108.675 21.2777H105.692L102.738 11.7948L99.755 21.2777H96.743L92.2977 7.19971H95.5152L98.264 16.9168L101.247 7.19971H104.171L107.125 16.9168L109.903 7.19971ZM116.922 5.06313C115.84 5.06313 114.963 4.15581 114.963 3.13142C114.963 2.04849 115.84 1.19971 116.922 1.19971C118.004 1.19971 118.881 2.07776 118.881 3.13142C118.881 4.18508 118.004 5.06313 116.922 5.06313ZM115.401 21.2485V7.19971H118.443V21.2777H115.401V21.2485ZM129.438 6.81922C132.597 6.81922 134.878 8.95584 134.878 12.6143V21.2485H131.837V12.9363C131.837 10.7997 130.608 9.65821 128.679 9.65821C126.66 9.65821 125.081 10.829 125.081 13.7265V21.2777H122.01V7.19971H125.081V8.98509C125.958 7.52169 127.509 6.81922 129.438 6.81922ZM149.355 1.55093H152.425V21.2485H149.355V19.229C148.272 20.7217 146.605 21.629 144.412 21.629C140.581 21.629 137.364 18.3802 137.364 14.2241C137.364 10.0388 140.552 6.81922 144.412 6.81922C146.605 6.81922 148.302 7.72651 149.355 9.18999V1.55093ZM144.88 18.7314C147.424 18.7314 149.355 16.829 149.355 14.2241C149.355 11.59 147.424 9.71679 144.88 9.71679C142.335 9.71679 140.406 11.6192 140.406 14.2241C140.406 16.829 142.335 18.7314 144.88 18.7314ZM162.631 21.629C158.361 21.629 155.145 18.3802 155.145 14.2241C155.145 10.0388 158.332 6.81922 162.631 6.81922C165.41 6.81922 167.808 8.25339 168.948 10.4485L166.317 11.9705C165.702 10.6534 164.298 9.80461 162.602 9.80461C160.116 9.80461 158.216 11.6777 158.216 14.2241C158.216 16.7705 160.116 18.6436 162.602 18.6436C164.298 18.6436 165.673 17.7656 166.375 16.4777L169.007 17.9705C167.808 20.1948 165.41 21.629 162.631 21.629ZM174.037 11.0631C174.037 13.6388 181.641 12.0875 181.641 17.2973C181.641 20.1071 179.184 21.629 176.113 21.629C173.277 21.629 171.258 20.3705 170.352 18.3217L172.984 16.7997C173.423 18.0582 174.564 18.8192 176.113 18.8192C177.459 18.8192 178.512 18.3802 178.512 17.2388C178.512 14.7217 170.907 16.1558 170.907 11.0924C170.907 8.45821 173.189 6.78996 176.084 6.78996C178.395 6.78996 180.324 7.87291 181.319 9.71679L178.746 11.1509C178.248 10.0388 177.254 9.54114 176.084 9.54114C175.002 9.57046 174.037 10.068 174.037 11.0631ZM187.08 11.0631C187.08 13.6388 194.684 12.0875 194.684 17.2973C194.684 20.1071 192.227 21.629 189.156 21.629C186.32 21.629 184.302 20.3705 183.395 18.3217L186.027 16.7997C186.466 18.0582 187.606 18.8192 189.156 18.8192C190.502 18.8192 191.555 18.3802 191.555 17.2388C191.555 14.7217 183.951 16.1558 183.951 11.0924C183.951 8.45821 186.232 6.78996 189.127 6.78996C191.438 6.78996 193.368 7.87291 194.362 9.71679L191.788 11.1509C191.292 10.0388 190.297 9.54114 189.127 9.54114C188.045 9.57046 187.08 10.068 187.08 11.0631Z" fill="white"/>
</g>
</g>
<defs>
<clipPath id="clip0_281_408">
<rect width="195" height="24" fill="white"/>
</clipPath>
</defs>
</svg>
