<svg width="119" height="24" viewBox="0 0 119 24" fill="none" xmlns="http://www.w3.org/2000/svg">
<g clip-path="url(#clip0_281_394)">
<mask id="mask0_281_394" style="mask-type:luminance" maskUnits="userSpaceOnUse" x="0" y="0" width="119" height="24">
<path d="M118.37 0.0302734H0.417969V23.9703H118.37V0.0302734Z" fill="white"/>
</mask>
<g mask="url(#mask0_281_394)">
<path d="M78.8281 0.0400391H99.3732V3.83062H91.2236V23.7723H87.1476V3.83062H78.8281V0.0400391Z" fill="white"/>
<path d="M45.0393 0.0400391V3.83062H28.5709V9.92851H41.8148V13.719H28.5709V19.9817H45.0393V23.7723H24.4959V3.83062H24.4941V0.0400391H45.0393Z" fill="white"/>
<path d="M55.2978 0.0498047H49.9648L69.0665 23.7821H74.4151L64.863 11.9242L74.3998 0.067911L69.0665 0.0761493L62.1929 8.60943L55.2978 0.0498047Z" fill="white"/>
<path d="M60.7719 17.0018L58.1012 13.6826L49.9512 23.8001H55.2994L60.7719 17.0018Z" fill="white"/>
<path fill-rule="evenodd" clip-rule="evenodd" d="M24.6392 23.7725L5.5118 0.0302734H0.417969V23.7626H4.49304V5.10304L19.5198 23.7725H24.6392Z" fill="white"/>
<path d="M100.291 23.6274C99.9923 23.6274 99.7386 23.5241 99.5261 23.3174C99.3135 23.1108 99.2087 22.8606 99.211 22.5641C99.2087 22.2759 99.3135 22.0284 99.5261 21.8218C99.7386 21.6151 99.9923 21.5117 100.291 21.5117C100.578 21.5117 100.829 21.6151 101.042 21.8218C101.257 22.0284 101.365 22.2759 101.368 22.5641C101.365 22.76 101.315 22.9394 101.216 23.0999C101.113 23.263 100.984 23.3909 100.821 23.4833C100.661 23.5785 100.484 23.6274 100.291 23.6274Z" fill="white"/>
<path d="M107.245 13.6299H109.051V20.5842C109.048 21.2234 108.91 21.7701 108.64 22.2297C108.366 22.6893 107.988 23.0402 107.502 23.2877C107.019 23.5324 106.453 23.6575 105.809 23.6575C105.221 23.6575 104.694 23.5514 104.224 23.3448C103.755 23.1381 103.382 22.828 103.109 22.4201C102.833 22.0121 102.697 21.5035 102.697 20.8943H104.506C104.508 21.1609 104.57 21.392 104.685 21.5851C104.801 21.7782 104.961 21.925 105.166 22.0284C105.373 22.1318 105.61 22.1834 105.878 22.1834C106.168 22.1834 106.417 22.1236 106.618 22.0012C106.82 21.8816 106.975 21.7021 107.082 21.4627C107.187 21.2261 107.242 20.9324 107.245 20.5842V13.6299Z" fill="white"/>
<path d="M116.482 16.3491C116.437 15.9275 116.244 15.5985 115.908 15.3645C115.568 15.1279 115.128 15.011 114.59 15.011C114.212 15.011 113.886 15.0681 113.616 15.1796C113.345 15.2938 113.135 15.4462 112.992 15.6392C112.848 15.8323 112.776 16.0527 112.77 16.3001C112.77 16.5068 112.82 16.6863 112.917 16.8359C113.013 16.9882 113.143 17.116 113.312 17.2194C113.477 17.3254 113.662 17.4125 113.864 17.4832C114.068 17.5539 114.273 17.6138 114.477 17.6627L115.418 17.8939C115.797 17.981 116.164 18.0979 116.515 18.2474C116.866 18.3944 117.183 18.582 117.461 18.8077C117.74 19.0335 117.961 19.3054 118.124 19.6237C118.288 19.9419 118.37 20.3144 118.37 20.7442C118.37 21.3234 118.221 21.8321 117.92 22.2726C117.619 22.7105 117.186 23.0532 116.617 23.3007C116.05 23.5455 115.366 23.6706 114.56 23.6706C113.781 23.6706 113.102 23.551 112.531 23.3116C111.956 23.075 111.508 22.7268 111.186 22.27C110.862 21.813 110.689 21.2555 110.664 20.6H112.453C112.478 20.9427 112.588 21.2283 112.776 21.4594C112.966 21.6879 113.215 21.8565 113.519 21.9708C113.825 22.0822 114.167 22.1394 114.546 22.1394C114.941 22.1394 115.289 22.0796 115.589 21.9626C115.888 21.8456 116.122 21.6825 116.291 21.4704C116.462 21.2609 116.548 21.0134 116.55 20.7306C116.548 20.4722 116.47 20.2573 116.321 20.0887C116.169 19.9201 115.96 19.7787 115.692 19.6645C115.421 19.5502 115.107 19.4468 114.747 19.3571L113.605 19.0688C112.779 18.8594 112.124 18.5412 111.647 18.1142C111.166 17.6872 110.929 17.1215 110.929 16.4117C110.929 15.8296 111.089 15.3184 111.412 14.8804C111.732 14.4426 112.171 14.1026 112.727 13.8606C113.284 13.6158 113.914 13.4961 114.615 13.4961C115.328 13.4961 115.951 13.6158 116.49 13.8606C117.028 14.1026 117.451 14.4399 117.757 14.8696C118.064 15.2993 118.224 15.7916 118.232 16.3491H116.482Z" fill="white"/>
</g>
</g>
<defs>
<clipPath id="clip0_281_394">
<rect width="119" height="23.94" fill="white" transform="translate(0 0.0302734)"/>
</clipPath>
</defs>
</svg>
