<svg width="79" height="26" viewBox="0 0 79 26" fill="none" xmlns="http://www.w3.org/2000/svg">
<g clip-path="url(#clip0_281_380)">
<mask id="mask0_281_380" style="mask-type:luminance" maskUnits="userSpaceOnUse" x="-66" y="0" width="145" height="26">
<path d="M78.6686 0.980469H-65.5801V25.0105H78.6686V0.980469Z" fill="white"/>
</mask>
<g mask="url(#mask0_281_380)">
<path d="M40.0449 22.3711H43.3702V3.32422H40.0449V22.3711Z" fill="white"/>
<path fill-rule="evenodd" clip-rule="evenodd" d="M21.7588 22.1635C22.4718 22.4602 23.2141 22.6085 23.9556 22.6085C25.2027 22.6085 26.3011 22.3118 27.2515 21.7185C28.2312 21.1251 28.9727 20.2944 29.5077 19.2263C30.0418 18.1583 30.3093 16.9715 30.3093 15.6068C30.3093 14.2421 30.0418 13.0554 29.4776 11.9873C28.9134 10.9193 28.1718 10.1182 27.1922 9.52488C26.2125 8.93153 25.084 8.63482 23.8369 8.66448C23.036 8.66448 22.2937 8.8128 21.5514 9.13918C20.8092 9.43589 20.2156 9.88091 19.7401 10.4446C19.7108 10.4743 19.6807 10.5336 19.6214 10.5633V3.32422H16.2969V22.3415H19.5921V20.5614C19.6807 20.6801 19.7701 20.7691 19.8595 20.8581C20.3937 21.4218 21.0173 21.8668 21.7588 22.1635ZM25.1434 19.078C24.6092 19.4043 23.9856 19.5824 23.2734 19.5824C22.5905 19.5824 21.9376 19.4043 21.3734 19.078C20.8092 18.722 20.3343 18.2473 20.0075 17.654C19.6807 17.0605 19.5027 16.3782 19.5027 15.6068C19.5027 14.8355 19.6514 14.1531 19.9782 13.5597C20.3043 12.9664 20.7791 12.4917 21.3433 12.1356C21.9076 11.8093 22.5604 11.6313 23.2434 11.6313C23.9263 11.6313 24.5499 11.7796 25.1141 12.106C25.6775 12.4324 26.0938 12.907 26.3905 13.5004C26.6873 14.0937 26.8353 14.7761 26.8353 15.5771C26.8353 16.3485 26.6873 17.0309 26.3905 17.654C26.1231 18.277 25.7076 18.7517 25.1434 19.078Z" fill="white"/>
<path d="M-22.207 4.48145H-18.4071L-15.0228 16.8531L-11.401 4.48145H-8.2542L-4.33552 16.6158L-1.06994 4.48145H2.40337L-2.73241 22.3714H-5.99798L-9.97602 10.5041L-13.6275 22.3714H-16.9228L-22.207 4.48145Z" fill="white"/>
<path fill-rule="evenodd" clip-rule="evenodd" d="M7.98381 22.6677C6.64793 22.6677 5.46044 22.371 4.42139 21.8073C3.35268 21.2139 2.55112 20.3832 1.9277 19.3152C1.33395 18.2471 1.03711 17.0307 1.03711 15.6957C1.03711 14.3606 1.33395 13.1738 1.95737 12.1058C2.5808 11.0378 3.41203 10.207 4.45107 9.61369C5.51979 9.02034 6.67761 8.72363 7.98381 8.72363C9.43854 8.72363 10.715 9.05001 11.8134 9.70268C12.9118 10.3554 13.7427 11.2751 14.2776 12.4618C14.8419 13.6485 15.0199 15.0133 14.8712 16.5263H4.45107C4.48075 17.1494 4.6292 17.6834 4.89637 18.1878C5.19328 18.7515 5.63857 19.1668 6.17289 19.4635C6.73696 19.7602 7.33071 19.9382 8.01349 19.9382C8.51821 19.9382 9.02285 19.8492 9.46784 19.6712C9.91336 19.4932 10.2995 19.2558 10.5963 18.9591C10.9231 18.6625 11.1305 18.3064 11.2792 17.9504H14.7525C14.5443 18.8701 14.1289 19.7009 13.476 20.4425C12.8524 21.1546 12.0508 21.7183 11.1012 22.1336C10.1808 22.4897 9.14178 22.6973 7.98381 22.6677ZM4.92604 13.1442C4.71823 13.4705 4.59953 13.8562 4.51042 14.2419H11.4272C11.3679 13.7376 11.2199 13.2926 10.9825 12.9069C10.6857 12.4322 10.2995 12.0465 9.79466 11.8092C9.28979 11.5421 8.72601 11.3938 8.10259 11.3938C7.41974 11.3938 6.82606 11.5421 6.26199 11.8685C5.69792 12.1651 5.25263 12.5805 4.92604 13.1442Z" fill="white"/>
<path d="M32.7722 8.96083C32.7722 7.86308 33.0096 6.91369 33.5145 6.08299C34.0193 5.22261 34.7023 4.56991 35.5926 4.09522C36.4836 3.62053 37.5519 3.38319 38.7397 3.35352V6.32033C38.1755 6.32033 37.7007 6.439 37.3145 6.67635C36.9284 6.88403 36.6316 7.21037 36.4242 7.62573C36.2161 8.01142 36.1267 8.45644 36.0974 8.96083H38.6804V11.7792H36.0974V22.3708H32.7722V11.7792H30.6348V8.96083H32.7722Z" fill="white"/>
<path fill-rule="evenodd" clip-rule="evenodd" d="M51.8027 22.6381C50.4368 22.6381 49.2498 22.3414 48.1807 21.7481C47.1124 21.1547 46.2807 20.324 45.6872 19.256C45.0936 18.1879 44.7969 17.0012 44.7969 15.6365C44.7969 14.2717 45.0936 13.085 45.6872 12.0169C46.2807 10.9489 47.1417 10.1182 48.1807 9.52482C49.2498 8.93148 50.4669 8.63477 51.8027 8.63477C53.1686 8.63477 54.3857 8.93148 55.454 9.52482C56.5231 10.1182 57.3841 10.9489 57.9776 12.0169C58.5711 13.085 58.8679 14.3014 58.8979 15.6365C58.8979 16.9715 58.5711 18.1879 57.9776 19.256C57.3841 20.324 56.5524 21.1251 55.4841 21.7481C54.3857 22.3414 53.1686 22.6381 51.8027 22.6381ZM51.8027 19.612C52.5149 19.612 53.1385 19.4637 53.7027 19.1373C54.267 18.8109 54.6824 18.3362 54.9792 17.7429C55.2759 17.1495 55.4247 16.4671 55.4247 15.6958C55.4247 14.9244 55.2759 14.2421 54.9792 13.619C54.6824 13.0256 54.267 12.551 53.7027 12.2246C53.1385 11.8983 52.5149 11.7202 51.8027 11.7202C51.0905 11.7202 50.4669 11.8983 49.932 12.2246C49.3978 12.551 48.9823 12.996 48.6555 13.619C48.3588 14.2124 48.2108 14.8947 48.2108 15.6958C48.2108 16.4671 48.3588 17.1495 48.6555 17.7429C48.953 18.3362 49.3978 18.8109 49.932 19.1373C50.4669 19.4339 51.0905 19.612 51.8027 19.612Z" fill="white"/>
<path d="M62.4587 8.96094H58.748L62.7562 22.3413H65.992L68.6336 13.7968L71.484 22.3413H74.6605L78.6679 8.96094H75.3134L73.0572 17.2977L70.5336 8.96094H67.2978L64.8042 17.4756L62.4587 8.96094Z" fill="white"/>
</g>
</g>
<defs>
<clipPath id="clip0_281_380">
<rect width="145" height="24.03" fill="white" transform="translate(-66 0.980469)"/>
</clipPath>
</defs>
</svg>
