<svg width="107" height="26" viewBox="0 0 107 26" fill="none" xmlns="http://www.w3.org/2000/svg">
<g clip-path="url(#clip0_281_455)">
<mask id="mask0_281_455" style="mask-type:luminance" maskUnits="userSpaceOnUse" x="0" y="0" width="107" height="26">
<path d="M106.688 0.950195H0.396484V25.0302H106.688V0.950195Z" fill="white"/>
</mask>
<g mask="url(#mask0_281_455)">
<path d="M30.6055 20.4987V4.44531H40.3739V7.5524H34.3063V11.8678H40.3739V14.9317H34.3063V20.4987H30.6055Z" fill="white"/>
<path d="M42.8262 20.4977V9.45113H46.3118V11.7381C46.4839 10.9614 46.8713 10.3141 47.4306 9.88263C47.9901 9.45113 48.6356 9.23535 49.3241 9.23535C49.6684 9.23535 50.0127 9.27855 50.2278 9.32168V12.6011C49.7975 12.558 49.4532 12.5149 49.195 12.5149C47.2585 12.5149 46.3118 13.7662 46.3118 16.1827V20.4545H42.8262V20.4977Z" fill="white"/>
<path d="M56.2538 20.7571C54.6616 20.7571 53.3706 20.1962 52.4669 19.1174C51.5202 18.0386 51.0898 16.6147 51.0898 14.9318C51.0898 13.2489 51.5632 11.8681 52.5099 10.7462C53.4567 9.66739 54.7476 9.10645 56.2968 9.10645C57.0714 9.10645 57.7599 9.2791 58.3624 9.62427C58.9648 9.9695 59.4382 10.401 59.7394 11.0051V9.40855H63.2251V20.4551H59.7394V18.9017C59.4382 19.4626 58.9648 19.8941 58.3194 20.2394C57.7169 20.6277 57.0283 20.7571 56.2538 20.7571ZM57.2435 17.8661C58.0611 17.8661 58.7497 17.6071 59.18 17.0462C59.6104 16.4852 59.8685 15.7948 59.8685 14.975C59.8685 14.1551 59.6534 13.4647 59.18 12.9037C58.7067 12.3428 58.0611 12.0838 57.2435 12.0838C56.469 12.0838 55.8234 12.3428 55.3501 12.9037C54.8767 13.4215 54.6185 14.1551 54.6185 14.975C54.6185 15.838 54.8767 16.5284 55.3501 17.0893C55.8234 17.6071 56.469 17.8661 57.2435 17.8661Z" fill="white"/>
<path d="M66.1074 20.498V9.45145H69.5931V11.048C69.8513 10.487 70.2386 10.0124 70.7981 9.66716C71.3574 9.322 72.003 9.14941 72.7343 9.14941C74.4555 9.14941 75.6176 9.83982 76.1774 11.1775C76.4786 10.5734 76.9519 10.0555 77.5542 9.71036C78.1998 9.322 78.8885 9.14941 79.663 9.14941C82.2877 9.14941 83.5788 10.6597 83.5788 13.6371V20.498H80.0499V14.2844C80.0499 12.8172 79.4909 12.1268 78.4152 12.1268C77.1666 12.1268 76.5643 13.0329 76.5643 14.8453V20.5412H73.1219V14.2412C73.1219 12.8172 72.5621 12.0836 71.4864 12.0836C70.8841 12.0836 70.4107 12.2994 70.1095 12.6878C69.8083 13.0761 69.6362 13.8097 69.6362 14.8021V20.498H66.1074Z" fill="white"/>
<path d="M97.2638 14.3706C97.2638 14.8453 97.2206 15.3199 97.1774 15.9241H89.0447C89.0872 16.6576 89.3026 17.2186 89.776 17.6069C90.2493 17.9953 90.8516 18.2111 91.6262 18.2111C92.7018 18.2111 93.3906 17.8658 93.6917 17.1754H97.1349C96.9627 18.2542 96.3597 19.1604 95.3704 19.8076C94.3373 20.498 93.1327 20.8432 91.6694 20.8432C89.776 20.8432 88.3127 20.3254 87.237 19.2898C86.1614 18.2542 85.6016 16.8302 85.6016 14.9748C85.6016 13.1624 86.1614 11.7384 87.237 10.7028C88.3127 9.66716 89.776 9.14941 91.5404 9.14941C93.2616 9.14941 94.6385 9.62404 95.7148 10.6165C96.7041 11.5658 97.2638 12.8172 97.2638 14.3706ZM89.0015 13.7233H93.7782C93.7782 12.9898 93.5628 12.4289 93.1759 12.0405C92.7883 11.6521 92.2285 11.4363 91.454 11.4363C90.7227 11.4363 90.1204 11.6521 89.6895 12.0836C89.2594 12.5151 89.0447 13.0761 89.0015 13.7233Z" fill="white"/>
<path d="M99.2422 20.4977V9.45113H102.728V11.7381C102.9 10.9614 103.288 10.3141 103.847 9.88263C104.407 9.45113 105.052 9.23535 105.74 9.23535C106.085 9.23535 106.429 9.27855 106.644 9.32168V12.6011C106.213 12.558 105.869 12.5149 105.611 12.5149C103.675 12.5149 102.728 13.7662 102.728 16.1827V20.4545H99.2422V20.4977Z" fill="white"/>
<path d="M16.4047 0.950195V8.97684H8.40063L0.396484 0.950195H16.4047ZM0.396484 8.97684H8.40063L16.4047 17.0036H8.40063V25.0302L0.396484 17.0036V8.97684Z" fill="white"/>
</g>
</g>
<defs>
<clipPath id="clip0_281_455">
<rect width="107" height="24.08" fill="white" transform="translate(0 0.950195)"/>
</clipPath>
</defs>
</svg>
